<svg width="40" height="40" viewBox="0 0 40 40" fill="none" xmlns="http://www.w3.org/2000/svg">
<rect width="40" height="40" rx="5" fill="white"/>
<path d="M22 12.875V4.79999H9.5C8.66875 4.79999 8 5.4353 8 6.22499V33.775C8 34.5647 8.66875 35.2 9.5 35.2H30.5C31.3313 35.2 32 34.5647 32 33.775V14.3H23.5C22.675 14.3 22 13.6587 22 12.875ZM26 26.8875C26 27.2794 25.6625 27.6 25.25 27.6H14.75C14.3375 27.6 14 27.2794 14 26.8875V26.4125C14 26.0206 14.3375 25.7 14.75 25.7H25.25C25.6625 25.7 26 26.0206 26 26.4125V26.8875ZM26 23.0875C26 23.4794 25.6625 23.8 25.25 23.8H14.75C14.3375 23.8 14 23.4794 14 23.0875V22.6125C14 22.2206 14.3375 21.9 14.75 21.9H25.25C25.6625 21.9 26 22.2206 26 22.6125V23.0875ZM26 18.8125V19.2875C26 19.6794 25.6625 20 25.25 20H14.75C14.3375 20 14 19.6794 14 19.2875V18.8125C14 18.4206 14.3375 18.1 14.75 18.1H25.25C25.6625 18.1 26 18.4206 26 18.8125ZM32 12.0378V12.4H24V4.79999H24.3813C24.7813 4.79999 25.1625 4.94843 25.4437 5.21561L31.5625 11.0344C31.8437 11.3016 32 11.6637 32 12.0378Z" fill="#094A3E"/>
</svg>
