<svg width="50" height="50" viewBox="0 0 50 50" fill="none" xmlns="http://www.w3.org/2000/svg">
<rect width="50" height="50" rx="5" fill="url(#paint0_linear)"/>
<path d="M27.5 16.0938V6H11.875C10.8359 6 10 6.79414 10 7.78125V42.2188C10 43.2059 10.8359 44 11.875 44H38.125C39.1641 44 40 43.2059 40 42.2188V17.875H29.375C28.3437 17.875 27.5 17.0734 27.5 16.0938ZM32.5 33.6094C32.5 34.0992 32.0781 34.5 31.5625 34.5H18.4375C17.9219 34.5 17.5 34.0992 17.5 33.6094V33.0156C17.5 32.5258 17.9219 32.125 18.4375 32.125H31.5625C32.0781 32.125 32.5 32.5258 32.5 33.0156V33.6094ZM32.5 28.8594C32.5 29.3492 32.0781 29.75 31.5625 29.75H18.4375C17.9219 29.75 17.5 29.3492 17.5 28.8594V28.2656C17.5 27.7758 17.9219 27.375 18.4375 27.375H31.5625C32.0781 27.375 32.5 27.7758 32.5 28.2656V28.8594ZM32.5 23.5156V24.1094C32.5 24.5992 32.0781 25 31.5625 25H18.4375C17.9219 25 17.5 24.5992 17.5 24.1094V23.5156C17.5 23.0258 17.9219 22.625 18.4375 22.625H31.5625C32.0781 22.625 32.5 23.0258 32.5 23.5156ZM40 15.0473V15.5H30V6H30.4766C30.9766 6 31.4531 6.18555 31.8047 6.51953L39.4531 13.793C39.8047 14.127 40 14.5797 40 15.0473Z" fill="white"/>
<defs>
<linearGradient id="paint0_linear" x1="25" y1="0" x2="25" y2="50" gradientUnits="userSpaceOnUse">
<stop stop-color="#13967E"/>
<stop offset="1" stop-color="#123230"/>
</linearGradient>
</defs>
</svg>
