<svg width="36" height="57" viewBox="0 0 36 57" fill="none" xmlns="http://www.w3.org/2000/svg">
<ellipse cx="2" cy="2.34815" rx="2" ry="1.8963" fill="#13967E"/>
<ellipse cx="2" cy="9.85263" rx="2" ry="1.8963" fill="#13967E"/>
<ellipse cx="2" cy="17.3571" rx="2" ry="1.8963" fill="#13967E"/>
<ellipse cx="2" cy="24.8616" rx="2" ry="1.8963" fill="#13967E"/>
<ellipse cx="2" cy="32.3661" rx="2" ry="1.8963" fill="#13967E"/>
<ellipse cx="2" cy="39.8706" rx="2" ry="1.8963" fill="#13967E"/>
<ellipse cx="2" cy="47.3751" rx="2" ry="1.8963" fill="#13967E"/>
<ellipse cx="2" cy="54.8796" rx="2" ry="1.8963" fill="#13967E"/>
<ellipse cx="9.91489" cy="2.34815" rx="2" ry="1.8963" fill="#13967E"/>
<ellipse cx="9.91489" cy="9.85263" rx="2" ry="1.8963" fill="#13967E"/>
<ellipse cx="9.91489" cy="17.3571" rx="2" ry="1.8963" fill="#13967E"/>
<ellipse cx="9.91489" cy="24.8616" rx="2" ry="1.8963" fill="#13967E"/>
<ellipse cx="9.91489" cy="32.3661" rx="2" ry="1.8963" fill="#13967E"/>
<ellipse cx="9.91489" cy="39.8706" rx="2" ry="1.8963" fill="#13967E"/>
<ellipse cx="9.91489" cy="47.3751" rx="2" ry="1.8963" fill="#13967E"/>
<ellipse cx="9.91489" cy="54.8796" rx="2" ry="1.8963" fill="#13967E"/>
<ellipse cx="17.8298" cy="2.34815" rx="2" ry="1.8963" fill="#13967E"/>
<ellipse cx="17.8298" cy="9.85263" rx="2" ry="1.8963" fill="#13967E"/>
<ellipse cx="17.8298" cy="17.3571" rx="2" ry="1.8963" fill="#13967E"/>
<ellipse cx="17.8298" cy="24.8616" rx="2" ry="1.8963" fill="#13967E"/>
<ellipse cx="17.8298" cy="32.3661" rx="2" ry="1.8963" fill="#13967E"/>
<ellipse cx="17.8298" cy="39.8706" rx="2" ry="1.8963" fill="#13967E"/>
<ellipse cx="17.8298" cy="47.3751" rx="2" ry="1.8963" fill="#13967E"/>
<ellipse cx="17.8298" cy="54.8796" rx="2" ry="1.8963" fill="#13967E"/>
<ellipse cx="25.7447" cy="2.34815" rx="2" ry="1.8963" fill="#13967E"/>
<ellipse cx="25.7447" cy="9.85263" rx="2" ry="1.8963" fill="#13967E"/>
<ellipse cx="25.7447" cy="17.3571" rx="2" ry="1.8963" fill="#13967E"/>
<ellipse cx="25.7447" cy="24.8616" rx="2" ry="1.8963" fill="#13967E"/>
<ellipse cx="25.7447" cy="32.3661" rx="2" ry="1.8963" fill="#13967E"/>
<ellipse cx="25.7447" cy="39.8706" rx="2" ry="1.8963" fill="#13967E"/>
<ellipse cx="25.7447" cy="47.3751" rx="2" ry="1.8963" fill="#13967E"/>
<ellipse cx="25.7447" cy="54.8796" rx="2" ry="1.8963" fill="#13967E"/>
<ellipse cx="33.6596" cy="2.34815" rx="2" ry="1.8963" fill="#13967E"/>
<ellipse cx="33.6596" cy="9.85263" rx="2" ry="1.8963" fill="#13967E"/>
<ellipse cx="33.6596" cy="17.3571" rx="2" ry="1.8963" fill="#13967E"/>
<ellipse cx="33.6596" cy="24.8616" rx="2" ry="1.8963" fill="#13967E"/>
<ellipse cx="33.6596" cy="32.3661" rx="2" ry="1.8963" fill="#13967E"/>
<ellipse cx="33.6596" cy="39.8706" rx="2" ry="1.8963" fill="#13967E"/>
<ellipse cx="33.6596" cy="47.3751" rx="2" ry="1.8963" fill="#13967E"/>
<ellipse cx="33.6596" cy="54.8796" rx="2" ry="1.8963" fill="#13967E"/>
</svg>
