<svg width="50" height="50" viewBox="0 0 50 50" fill="none" xmlns="http://www.w3.org/2000/svg">
<rect x="3" y="3" width="44" height="44" fill="white"/>
<path d="M44.6429 0H5.35714C2.39844 0 0 2.39844 0 5.35714V44.6429C0 47.6016 2.39844 50 5.35714 50H44.6429C47.6016 50 50 47.6016 50 44.6429V5.35714C50 2.39844 47.6016 0 44.6429 0ZM10.4911 42.8571C9.70614 42.8571 9.03382 42.3133 8.85982 41.5595L7.18594 34.305C7.09767 33.9225 7.14662 33.5212 7.32425 33.1711C7.50188 32.821 7.79688 32.5445 8.1577 32.3898L15.97 29.0417C16.3037 28.8987 16.6749 28.8681 17.0275 28.9544C17.3802 29.0408 17.6952 29.2394 17.9251 29.5204L21.3846 33.7487C26.8471 31.1858 31.2392 26.7333 33.7485 21.3848L29.5202 17.9253C29.2392 17.6954 29.0406 17.3804 28.9542 17.0277C28.8679 16.6751 28.8985 16.3039 29.0415 15.9702L32.3897 8.15792C32.5444 7.79711 32.8209 7.5021 33.171 7.32448C33.521 7.14685 33.9224 7.09789 34.3049 7.18616L41.5594 8.86004C41.9283 8.94509 42.2574 9.15267 42.4931 9.4489C42.7288 9.74513 42.8572 10.1125 42.8571 10.4911C42.8571 28.3808 28.3544 42.8571 10.4911 42.8571Z" fill="url(#paint0_linear)"/>
<defs>
<linearGradient id="paint0_linear" x1="25" y1="0" x2="25" y2="50" gradientUnits="userSpaceOnUse">
<stop stop-color="#13967E"/>
<stop offset="1" stop-color="#123230"/>
</linearGradient>
</defs>
</svg>
